:SAMPLES-PER-SECOND 30
:FULLY-SPECIFIED
:DEGREES
73
root  -34.6906 38.9743 11.8886 -140.895 -77.0847 142.213
RightUpLeg  -6.46339 -16.1586 -5.99488
RightLeg  27.0642 8.30979 5.50752
RightFoot  -22.0969 -0.965584 -8.65133
RightToes  4.01633e-009 0 -3.6325e-017
Spine  -6.87742 0.930968 3.67126
Spine1  16.6456 1.40703 -2.0845
HEad  13.0091 0.408979 -3.22329
LeftShoulder1  -0.254728 4.206 -30.1326
LeftArm  -2.20222 8.15179 -45.0446
LeftForeArm  20.1932 -21.3331 -4.00927
LeftHand  0.0154655 2.55327 -1.21373
RightShoulder  -0.542254 -5.1756 25.6717
RightArm  21.8791 3.40319 51.0164
RightForeArm  5.89957 23.4224 4.70653
RightHand  -0.362989 1.63374 -6.15726
LeftUpLeg  -29.6645 -7.61477 -4.02641
LeftLeg  18.5219 -0.214969 0.179843
LeftFoot  4.68967 0.338314 -2.59917
LeftToes  -1.95724e-009 9.62483e-011 3.51777e-011
74
root  -36.0537 38.8582 11.7067 -139.531 -77.4958 142.063
RightUpLeg  -4.54801 -16.9197 -6.60311
RightLeg  25.8903 8.67788 6.17299
RightFoot  -23.5392 -1.07819 -8.58333
RightToes  4.01633e-009 0 -3.6325e-017
Spine  -9.27445 0.579343 3.49483
Spine1  17.0384 0.888889 -2.76599
HEad  13.4799 1.40152 -3.20121
LeftShoulder1  -0.22737 4.13976 -29.6158
LeftArm  -2.99055 7.92651 -45.5494
LeftForeArm  21.1943 -20.9619 -3.99522
LeftHand  0.0129144 2.97847 -1.42736
RightShoulder  -0.527545 -5.11056 26.0365
RightArm  23.6174 4.63286 50.7639
RightForeArm  4.91876 23.152 4.73866
RightHand  -0.409321 2.35122 -6.33592
LeftUpLeg  -28.964 -8.58051 -3.82768
LeftLeg  4.73763 2.05758 0.697849
LeftFoot  6.03327 0.649165 -4.49862
LeftToes  -1.95724e-009 9.62483e-011 3.51777e-011
75
root  -37.508 38.5575 11.5408 -138.496 -78.5436 142.017
RightUpLeg  -2.53177 -17.7907 -6.85024
RightLeg  25.6278 8.62461 6.68712
RightFoot  -25.5891 -1.24181 -8.52541
RightToes  4.01633e-009 0 -3.6325e-017
Spine  -11.2937 0.0501686 3.58316
Spine1  17.0295 0.0272462 -2.93452
HEad  13.7058 1.92681 -2.88054
LeftShoulder1  -0.222767 4.12422 -29.7619
LeftArm  -1.80441 7.92674 -45.0135
LeftForeArm  20.7041 -21.2049 -4.01886
LeftHand  0.0137083 2.94116 -1.41024
RightShoulder  -0.538892 -5.14242 26.1013
RightArm  25.2733 5.85564 50.8214
RightForeArm  4.10317 21.7288 4.7819
RightHand  -0.400211 2.38447 -6.17365
LeftUpLeg  -29.3689 -8.63714 -4.42837
LeftLeg  -3.35335 6.18838 1.1998
LeftFoot  6.06094 0.776184 -5.31454
LeftToes  -1.95724e-009 9.62483e-011 3.51777e-011
76
root  -39.0232 38.1799 11.3792 -138.457 -78.9984 142.606
RightUpLeg  -0.380086 -19.3072 -7.59672
RightLeg  26.1833 9.71388 7.39016
RightFoot  -27.7324 -1.40596 -8.4439
RightToes  4.01633e-009 0 -3.6325e-017
Spine  -12.7855 -0.312257 3.92719
Spine1  17.3816 -0.305273 -3.74817
HEad  13.8384 2.03975 -2.56591
LeftShoulder1  -0.245249 4.18537 -29.8526
LeftArm  -0.976667 7.21977 -44.3593
LeftForeArm  20.8031 -20.329 -4.2362
LeftHand  0.0104147 3.49265 -1.95807
RightShoulder  -0.54379 -5.15071 26.2315
RightArm  25.273 6.73195 51.1831
RightForeArm  4.84895 19.7924 5.14824
RightHand  -0.394701 2.24508 -6.20425
LeftUpLeg  -31.4674 -9.23107 -4.8726
LeftLeg  -3.24561 11.2495 1.19746
LeftFoot  5.14424 0.699494 -5.0508
LeftToes  -1.95724e-009 9.62483e-011 3.51777e-011
77
root  -40.525 37.8072 11.0837 -136.227 -78.5568 140.352
RightUpLeg  2.272 -20.9871 -9.39168
RightLeg  27.1689 11.6263 7.86717
RightFoot  -29.8016 -1.43545 -7.58121
RightToes  4.01633e-009 0 -3.6325e-017
Spine  -12.6716 -0.540714 2.09238
Spine1  17.038 -0.273035 -3.37752
HEad  13.9777 2.0057 -1.58685
LeftShoulder1  -0.193107 4.03495 -30.2064
LeftArm  -0.409717 6.36017 -43.3354
LeftForeArm  21.0853 -18.71 -4.78254
LeftHand  0.00617759 3.84698 -1.78827
RightShoulder  -0.472411 -4.94612 25.9082
RightArm  22.9112 6.30629 51.5404
RightForeArm  5.65286 17.4579 5.79953
RightHand  -0.384314 1.61512 -6.52425
LeftUpLeg  -31.3494 -9.76041 -5.92715
LeftLeg  -2.01698 13.5366 0.626748
LeftFoot  5.88539 0.527611 -3.64592
LeftToes  -1.95724e-009 9.62483e-011 3.51777e-011
78
root  -42.0046 37.5613 10.6579 -136.163 -76.5556 139.76
RightUpLeg  4.9283 -20.1372 -11.4532
RightLeg  27.9471 12.607 7.47093
RightFoot  -30.9623 -1.18884 -5.65032
RightToes  4.01633e-009 0 -3.6325e-017
Spine  -11.9862 -0.172555 -1.46146
Spine1  17.3033 0.629319 -2.33897
HEad  14.114 1.68022 -1.25108
LeftShoulder1  -0.197118 4.04102 -30.5069
LeftArm  -1.23239 5.65257 -42.4043
LeftForeArm  22.5948 -16.725 -5.4522
LeftHand  0.0179246 2.62731 -1.35792
RightShoulder  -0.490885 -4.98473 26.2733
RightArm  19.5941 5.23791 51.2709
RightForeArm  7.93312 15.5725 6.14377
RightHand  -0.359795 1.88195 -5.91491
LeftUpLeg  -30.8826 -9.1477 -7.50033
LeftLeg  1.89017 13.1373 0.532558
LeftFoot  8.54941 0.206883 -1.79598
LeftToes  -1.95724e-009 9.62483e-011 3.51777e-011
79
root  -43.427 37.4263 10.2727 -137.681 -73.2912 140.605
RightUpLeg  6.44925 -16.3774 -13.7939
RightLeg  29.7958 12.3908 7.26222
RightFoot  -31.0217 -0.586051 -2.19969
RightToes  4.01633e-009 0 -3.6325e-017
Spine  -11.2613 0.707745 -4.89382
Spine1  18.0057 2.3672 -2.78213
HEad  14.2889 1.05361 -0.211117
LeftShoulder1  -0.114383 3.82162 -29.8938
LeftArm  -3.97671 5.31232 -42.1674
LeftForeArm  25.0418 -14.5555 -5.9234
LeftHand  0.0162279 2.85379 -1.52133
RightShoulder  -0.593387 -5.24121 27.4275
RightArm  17.3269 4.48431 50.7879
RightForeArm  9.12013 13.5269 6.61299
RightHand  -0.378428 1.92714 -6.18073
LeftUpLeg  -30.9201 -7.54949 -9.77003
LeftLeg  5.74902 11.9752 1.0322
LeftFoot  15.8736 -0.952737 3.64604
LeftToes  -1.95724e-009 9.62483e-011 3.51777e-011
80
root  -44.7626 37.1644 10.0076 -132.136 -72.9114 134.429
RightUpLeg  6.49171 -14.9119 -15.9027
RightLeg  35.6826 10.9551 8.11316
RightFoot  -29.9136 0.346755 3.43377
RightToes  4.01633e-009 0 -3.6325e-017
Spine  -8.72442 -0.0658684 -8.19394
Spine1  17.2674 1.69167 -2.775
HEad  13.9096 0.920274 1.06429
LeftShoulder1  -0.097986 3.77449 -30.1653
LeftArm  -5.02153 4.3188 -40.7593
LeftForeArm  25.8021 -12.6935 -6.41089
LeftHand  0.00820997 3.7112 -2.0653
RightShoulder  -0.600326 -5.2379 27.8802
RightArm  15.4313 3.85281 51.1141
RightForeArm  10.9538 11.3286 7.00617
RightHand  -0.356439 1.61089 -6.06732
LeftUpLeg  -32.5596 -6.16203 -13.4637
LeftLeg  13.9938 8.59893 2.7895
LeftFoot  15.0335 -1.64892 6.64038
LeftToes  -1.95724e-009 9.62483e-011 3.51777e-011
81
root  -45.8623 36.964 9.74428 -127.649 -72.1931 129.026
RightUpLeg  3.64271 -14.6802 -18.6415
RightLeg  46.3409 9.62361 10.3101
RightFoot  -24.186 1.05169 11.2961
RightToes  4.01633e-009 0 -3.6325e-017
Spine  -4.96539 -0.523721 -11.5714
Spine1  16.76 1.03282 -2.68409
HEad  12.3993 1.18003 0.926788
LeftShoulder1  0.0532356 3.35424 -30.0853
LeftArm  -7.26095 2.60049 -40.3472
LeftForeArm  26.7252 -10.041 -6.5858
LeftHand  0.00452257 4.02033 -2.41598
RightShoulder  -0.595112 -5.23178 27.6677
RightArm  12.7684 3.42743 52.4472
RightForeArm  13.5382 9.30693 6.87259
RightHand  -0.334517 1.40573 -5.87951
LeftUpLeg  -33.067 -5.76616 -15.7952
LeftLeg  20.3011 7.6072 3.43009
LeftFoot  10.8335 -1.41375 6.86932
LeftToes  -1.95724e-009 9.62483e-011 3.51777e-011
82
root  -46.7061 37.0058 9.60558 -126.033 -72.5528 127.082
RightUpLeg  -2.82305 -14.6888 -19.6018
RightLeg  58.4451 7.12561 11.8993
RightFoot  -9.99753 -0.0709297 13.5973
RightToes  4.01633e-009 0 -3.6325e-017
Spine  -0.611884 -1.06342 -11.2493
Spine1  16.2108 0.677306 -4.94834
HEad  10.1171 1.14915 0.806479
LeftShoulder1  0.310897 2.62346 -29.154
LeftArm  -8.19675 0.577051 -40.8266
LeftForeArm  26.8236 -7.9063 -6.53971
LeftHand  -0.0103383 4.68893 -3.09322
RightShoulder  -0.485158 -4.95037 26.7099
RightArm  11.18 2.81865 54.2342
RightForeArm  13.9683 8.99624 6.43932
RightHand  -0.288051 0.308518 -5.91251
LeftUpLeg  -32.3907 -4.90539 -16.646
LeftLeg  22.6428 6.27511 3.19716
LeftFoot  8.37935 -1.30735 7.20468
LeftToes  -1.95724e-009 9.62483e-011 3.51777e-011
